<svg width="347" height="344" viewBox="0 0 347 344" fill="none" xmlns="http://www.w3.org/2000/svg">
<g clip-path="url(#clip0_1_2)">
<rect width="347" height="344" fill="white"/>
<g clip-path="url(#clip1_1_2)">
<path d="M281.671 170.03V148.57H301.79V109.17H281.671V87.7102C281.671 81.439 273.855 76.3367 264.248 76.3367L17.4234 76.3367C7.81637 76.3367 0 81.439 0 87.7102V170.03C0 176.301 7.81637 181.403 17.4234 181.403H264.248C273.855 181.403 281.671 176.301 281.671 170.03ZM271.611 87.7102V109.17V148.57V170.03C271.611 172.683 268.312 174.837 264.248 174.837H75.4476V82.9034L264.248 82.9034C268.312 82.9034 271.611 85.0573 271.611 87.7102Z" fill="#0C4E6B"/>
<rect x="74.729" y="82.6354" width="198.319" height="93.4745" fill="#0C4E6B"/>
<rect x="99.7903" y="85" width="179" height="88" fill="white"/>
<path d="M107.79 92H270.79V167H107.79V92Z" fill="#0C4E6B"/>
<rect x="165.765" y="86.3119" width="10" height="93.3989" transform="rotate(30 165.765 86.3119)" fill="white"/>
<rect x="146.934" y="87" width="10" height="92.2864" transform="rotate(30 146.934 87)" fill="white"/>
<rect x="184.599" y="86.1159" width="10" height="93.1866" transform="rotate(30 184.599 86.1159)" fill="white"/>
<rect width="139.359" height="175.735" transform="matrix(0.867704 0.49708 -0.502925 0.86433 39.1254 1.60739)" fill="white"/>
<g clip-path="url(#clip2_1_2)">
<path d="M97.2757 121.169L74.4811 120.127C73.5296 120.085 72.7641 119.1 72.7706 117.931C72.7731 117.671 72.8121 117.423 72.8847 117.195L89.5535 60.2129C89.7855 59.4154 90.3772 58.915 91.0288 58.8669L119.278 56.8792C120.23 56.8125 121.068 57.7087 121.15 58.8805C121.183 59.3557 121.088 59.8005 120.9 60.1707L108.456 90.0881L134.702 91.7898C135.654 91.8505 136.41 92.8499 136.386 94.0198C136.379 94.4822 136.247 94.9242 136.011 95.277L88.7421 176.897C88.2001 177.836 87.1261 178.035 86.3451 177.338C85.7349 176.797 85.4835 175.869 85.6626 175.04L97.2757 121.169Z" fill="#0C4E6B"/>
</g>
<g clip-path="url(#clip3_1_2)">
<rect width="54" height="25" transform="translate(95.7903 181)" fill="#0C4E6B"/>
<path d="M539.79 -179.227H-237.81V218.5H539.79V-179.227Z" fill="white"/>
<path d="M122.79 206C137.702 206 149.79 194.553 149.79 180.432C149.79 166.311 137.702 154.864 122.79 154.864C107.879 154.864 95.7903 166.311 95.7903 180.432C95.7903 194.553 107.879 206 122.79 206Z" fill="#0C4E6B"/>
</g>
<g clip-path="url(#clip4_1_2)">
<rect width="38" height="21" transform="translate(103.79 173)" fill="#0C4E6B"/>
<path d="M416.235 -129.591H-130.965V204.5H416.235V-129.591Z" fill="#0C4E6B"/>
<path d="M122.79 194C133.284 194 141.79 184.384 141.79 172.523C141.79 160.661 133.284 151.045 122.79 151.045C112.297 151.045 103.79 160.661 103.79 172.523C103.79 184.384 112.297 194 122.79 194Z" fill="white"/>
</g>
<g clip-path="url(#clip5_1_2)">
<rect width="54" height="25" transform="translate(211.79 181)" fill="#0C4E6B"/>
<path d="M655.79 -179.227H-121.81V218.5H655.79V-179.227Z" fill="white"/>
<path d="M238.79 206C253.702 206 265.79 194.553 265.79 180.432C265.79 166.311 253.702 154.864 238.79 154.864C223.879 154.864 211.79 166.311 211.79 180.432C211.79 194.553 223.879 206 238.79 206Z" fill="#0C4E6B"/>
</g>
</g>
<path d="M108.309 281.24C107.482 290.581 245.988 301.333 247.601 285.995C249.214 270.658 255.465 308.135 245.096 318.487C234.727 328.84 107.093 327.122 105.804 313.732C104.515 300.343 109.136 271.899 108.309 281.24Z" fill="#0C4E6B" stroke="white"/>
<rect width="2.02155" height="50.2705" transform="matrix(1.00526 0.00836845 -0.0085488 0.994583 238.668 286.158)" fill="white"/>
<rect width="9.64992" height="50.3026" transform="matrix(1.00212 0.086129 -0.0878736 0.990216 158.96 284.797)" fill="white"/>
<rect width="13.0753" height="50.3079" transform="matrix(1.00105 0.0984483 -0.100421 0.988954 111.667 277.194)" fill="white"/>
<rect width="11.111" height="50.305" transform="matrix(1.00164 0.0918701 -0.0937219 0.989647 127.573 282.654)" fill="white"/>
<rect width="10.9994" height="50.3023" transform="matrix(1.00217 0.0854683 -0.0872006 0.990279 142.981 282.746)" fill="white"/>
<rect width="8.9908" height="50.2994" transform="matrix(1.00269 0.0786249 -0.0802279 0.990908 173.399 287.626)" fill="white"/>
<rect width="8.08264" height="50.2929" transform="matrix(1.00367 0.0635055 -0.0648166 0.992127 188.574 287.835)" fill="white"/>
<rect width="5.05285" height="50.2809" transform="matrix(1.0049 0.0343508 -0.0350767 0.993814 203.977 287.929)" fill="white"/>
<rect width="4.0423" height="50.2806" transform="matrix(1.00492 0.0335688 -0.0342786 0.993847 218.347 288.647)" fill="white"/>
<rect width="3.03164" height="50.282" transform="matrix(1.00482 0.0370286 -0.0378094 0.993695 229.085 286.44)" fill="white"/>
<path d="M278.461 298.71L103.756 292.212L103.925 288.751L278.461 298.71Z" fill="white"/>
<path d="M271.318 310.18L96.6139 303.682L96.7822 300.222L271.318 310.18Z" fill="white"/>
<path d="M267.353 322.295L92.6484 315.797L92.8167 312.337L267.353 322.295Z" fill="white"/>
<path d="M270.019 316.455L95.315 309.956L95.4834 306.496L270.019 316.455Z" fill="white"/>
<path d="M273.081 304.796L98.3763 298.297L98.5447 294.837L273.081 304.796Z" fill="white"/>
<path d="M61.0955 239.64H81.0155V245.4H69.7355V250.392H79.2395V255.576H69.7355V261.144H80.9675V267H61.0955V239.64ZM105.607 246.312C105.895 246.664 106.103 247.544 106.231 248.952C106.391 250.36 106.471 252.504 106.471 255.384V267H98.2632V255.48V253.512C98.2632 252.488 98.1832 251.848 98.0232 251.592C97.7672 251.272 97.1752 251.112 96.2472 251.112C95.7992 251.112 95.4632 251.128 95.2392 251.16C94.3432 251.192 93.4152 251.4 92.4552 251.784V267H84.2472V244.92H90.9192L91.8312 248.616C94.1352 245.832 96.8872 244.44 100.087 244.44C101.239 244.44 102.311 244.6 103.303 244.92C104.327 245.24 105.095 245.704 105.607 246.312ZM123.655 261.24C124.455 261.24 125.943 261.16 128.119 261C128.407 261 128.935 260.968 129.703 260.904L130.423 265.848C127.959 267 124.759 267.576 120.823 267.576C117.143 267.576 114.311 266.648 112.327 264.792C110.375 262.936 109.399 260.136 109.399 256.392C109.399 254.472 109.639 252.616 110.119 250.824C110.631 249.032 111.207 247.784 111.847 247.08C112.519 246.376 113.767 245.768 115.591 245.256C117.415 244.744 119.223 244.488 121.015 244.488C123.895 244.488 126.055 245 127.495 246.024C128.935 247.048 129.879 248.472 130.327 250.296C130.775 252.088 130.999 254.504 130.999 257.544C128.823 257.672 126.695 257.736 124.615 257.736H117.799C117.799 258.76 118.007 259.528 118.423 260.04C118.871 260.552 119.495 260.888 120.295 261.048C121.095 261.176 122.215 261.24 123.655 261.24ZM118.279 250.2C118.087 250.296 117.943 250.712 117.847 251.448C117.751 252.184 117.687 253.016 117.655 253.944H120.151C121.655 253.944 122.743 253.928 123.415 253.896C123.415 252.36 123.191 251.272 122.743 250.632C122.327 249.992 121.591 249.672 120.535 249.672C119.671 249.672 118.919 249.848 118.279 250.2ZM147.568 244.44C147.984 244.44 148.416 244.488 148.864 244.584C149.344 244.68 149.696 244.792 149.92 244.92C149.92 245.624 149.84 246.792 149.68 248.424C149.52 250.024 149.376 251.16 149.248 251.832C148.928 251.8 148.336 251.784 147.472 251.784C145.456 251.784 143.664 251.896 142.096 252.12V267H133.888V244.92H140.752L141.712 248.472H141.76C142.688 247.256 143.68 246.28 144.736 245.544C145.792 244.808 146.736 244.44 147.568 244.44ZM163.595 244.536C165.099 244.536 166.667 244.648 168.299 244.872C169.931 245.064 171.835 245.336 174.011 245.688V264.792C174.011 269.368 172.491 272.92 169.451 275.448C169.067 275.768 168.203 276.04 166.859 276.264C165.515 276.488 163.995 276.6 162.299 276.6C158.619 276.6 155.707 276.12 153.563 275.16C153.531 274.456 153.579 273.528 153.707 272.376C153.867 271.224 154.027 270.312 154.187 269.64C156.491 269.992 158.747 270.168 160.955 270.168C162.075 270.168 163.019 270.104 163.787 269.976C164.587 269.88 165.083 269.72 165.275 269.496C165.531 269.24 165.723 268.28 165.851 266.616C165.883 266.168 165.899 265.512 165.899 264.648V263.448C165.099 264.632 164.075 265.48 162.827 265.992C161.579 266.504 160.459 266.76 159.467 266.76C156.779 266.76 154.747 265.88 153.371 264.12C151.995 262.36 151.307 259.784 151.307 256.392C151.307 254.152 151.611 252.056 152.219 250.104C152.859 248.12 153.723 246.744 154.811 245.976C155.515 245.496 156.651 245.144 158.219 244.92C159.819 244.664 161.611 244.536 163.595 244.536ZM162.587 260.76C163.771 260.76 164.843 260.568 165.803 260.184V250.152C165.451 250.088 164.923 250.024 164.219 249.96C163.899 249.928 163.419 249.912 162.779 249.912C161.787 249.912 161.163 250.008 160.907 250.2C160.555 250.456 160.267 251.176 160.043 252.36C159.851 253.512 159.755 254.728 159.755 256.008C159.755 257.768 159.947 259 160.331 259.704C160.747 260.408 161.499 260.76 162.587 260.76ZM200.751 244.92L194.991 263.4C193.871 266.952 192.863 269.528 191.967 271.128C191.071 272.76 190.175 273.896 189.279 274.536C188.767 274.888 187.951 275.16 186.831 275.352C185.743 275.544 184.559 275.64 183.279 275.64C181.359 275.64 179.823 275.464 178.671 275.112C178.639 274.344 178.671 273.4 178.767 272.28C178.863 271.192 178.991 270.264 179.151 269.496C180.495 269.56 181.807 269.592 183.087 269.592C184.047 269.592 184.767 269.576 185.247 269.544C185.727 268.616 186.175 267.64 186.591 266.616L183.279 266.424L175.887 244.92H184.575L188.415 260.376L188.463 261.288H188.607L192.063 244.92H200.751ZM212.685 239.64C216.429 239.64 219.485 239.992 221.853 240.696C224.253 241.4 226.109 242.728 227.421 244.68C228.765 246.632 229.437 249.432 229.437 253.08C229.437 256.984 228.733 259.96 227.325 262.008C225.917 264.024 224.029 265.368 221.661 266.04C219.293 266.68 216.301 267 212.685 267H203.085V239.64H212.685ZM219.117 260.472C219.501 260.088 219.773 259.096 219.933 257.496C220.093 255.896 220.173 254.424 220.173 253.08C220.173 251.384 220.045 250.04 219.789 249.048C219.565 248.024 219.149 247.208 218.541 246.6C217.581 245.544 215.933 245.016 213.597 245.016C213.181 245.016 212.557 245.048 211.725 245.112V261.048C212.269 261.112 213.117 261.144 214.269 261.144C215.453 261.144 216.493 261.096 217.389 261C218.317 260.872 218.893 260.696 219.117 260.472ZM246.521 244.44C246.937 244.44 247.369 244.488 247.817 244.584C248.297 244.68 248.649 244.792 248.873 244.92C248.873 245.624 248.793 246.792 248.633 248.424C248.473 250.024 248.329 251.16 248.201 251.832C247.881 251.8 247.289 251.784 246.425 251.784C244.409 251.784 242.617 251.896 241.049 252.12V267H232.841V244.92H239.705L240.665 248.472H240.713C241.641 247.256 242.633 246.28 243.689 245.544C244.745 244.808 245.689 244.44 246.521 244.44ZM255.3 242.184C254.212 242.184 253.268 241.816 252.468 241.08C251.7 240.344 251.316 239.464 251.316 238.44C251.316 237.416 251.7 236.536 252.468 235.8C253.268 235.064 254.212 234.696 255.3 234.696C256.388 234.696 257.316 235.064 258.084 235.8C258.852 236.536 259.236 237.416 259.236 238.44C259.236 239.464 258.852 240.344 258.084 241.08C257.316 241.816 256.388 242.184 255.3 242.184ZM251.172 244.92H259.38V267H251.172V244.92ZM277.658 244.92H286.25L279.53 267H268.154L261.434 244.92H270.026L273.626 261.864H274.106L277.658 244.92ZM301.545 261.24C302.345 261.24 303.833 261.16 306.009 261C306.297 261 306.825 260.968 307.593 260.904L308.313 265.848C305.849 267 302.649 267.576 298.713 267.576C295.033 267.576 292.201 266.648 290.217 264.792C288.265 262.936 287.289 260.136 287.289 256.392C287.289 254.472 287.529 252.616 288.009 250.824C288.521 249.032 289.097 247.784 289.737 247.08C290.409 246.376 291.657 245.768 293.481 245.256C295.305 244.744 297.113 244.488 298.905 244.488C301.785 244.488 303.945 245 305.385 246.024C306.825 247.048 307.769 248.472 308.217 250.296C308.665 252.088 308.889 254.504 308.889 257.544C306.713 257.672 304.585 257.736 302.505 257.736H295.689C295.689 258.76 295.897 259.528 296.313 260.04C296.761 260.552 297.385 260.888 298.185 261.048C298.985 261.176 300.105 261.24 301.545 261.24ZM296.169 250.2C295.977 250.296 295.833 250.712 295.737 251.448C295.641 252.184 295.577 253.016 295.545 253.944H298.041C299.545 253.944 300.633 253.928 301.305 253.896C301.305 252.36 301.081 251.272 300.633 250.632C300.217 249.992 299.481 249.672 298.425 249.672C297.561 249.672 296.809 249.848 296.169 250.2Z" fill="#0C4E6B"/>
</g>
<defs>
<clipPath id="clip0_1_2">
<rect width="347" height="344" fill="white"/>
</clipPath>
<clipPath id="clip1_1_2">
<rect width="197" height="301.79" fill="white" transform="matrix(0 1 -1 0 301.79 10)"/>
</clipPath>
<clipPath id="clip2_1_2">
<rect width="65.1511" height="118.351" fill="white" transform="translate(68.731 60.4235) rotate(-4.0109)"/>
</clipPath>
<clipPath id="clip3_1_2">
<rect width="54" height="25" fill="white" transform="translate(95.7903 181)"/>
</clipPath>
<clipPath id="clip4_1_2">
<rect width="38" height="21" fill="white" transform="translate(103.79 173)"/>
</clipPath>
<clipPath id="clip5_1_2">
<rect width="54" height="25" fill="white" transform="translate(211.79 181)"/>
</clipPath>
</defs>
</svg>
